<?xml version="1.0"?>
<svg xmlns="http://www.w3.org/2000/svg" height="100" width="100" viewBox="-20 -189 638.66798 638"><path d="m449.0625 178.550781c0 11.019531-8.9375 19.957031-19.960938 19.957031-11.019531 0-19.957031-8.9375-19.957031-19.957031 0-11.023437 8.9375-19.960937 19.957031-19.960937 11.023438 0 19.960938 8.9375 19.960938 19.960937zm0 0" fill="#c3bef7"/><path d="m129.722656 178.550781c0 11.019531-8.9375 19.957031-19.957031 19.957031-11.023437 0-19.960937-8.9375-19.960937-19.957031 0-11.023437 8.9375-19.960937 19.960937-19.960937 11.019531 0 19.957031 8.9375 19.957031 19.960937zm0 0" fill="#c3bef7"/><path d="m597.953125 208.488281c-3.734375-24.21875-21.171875-44.070312-44.707031-50.898437l-67.660156-20.054688c-13.101563-18.125-34.117188-28.855468-56.484376-28.839844-8.570312-.046874-17.074218 1.546876-25.042968 4.691407l-57.285156-16.96875c-8.804688-2.667969-18.351563-1.007813-25.734376 4.484375-7.378906 5.492187-11.71875 14.160156-11.6875 23.359375v14.371093h-69.855468v-89.816406c0-5.507812-4.46875-9.976562-9.980469-9.976562h-9.28125c-24.429687.65625-48.195313 8.085937-68.65625 21.453125-12.226563 7.582031-22.757813 17.605469-30.9375 29.441406l-31.332031-94.003906c-1.410156-4.039063-5.203125-6.757813-9.484375-6.789063h-69.851563c-2.871094-.019531-5.609375 1.21875-7.484375 3.390625-1.90625 2.117188-2.785156 4.964844-2.3984372 7.789063l1.1015622 8.78125h48.695313c5.511719 0 9.980469 4.464844 9.980469 9.976562 0 5.511719-4.46875 9.980469-9.980469 9.980469h-46.203125l2.496094 19.957031h53.6875c5.511718 0 9.980468 4.46875 9.980468 9.980469s-4.46875 9.980469-9.980468 9.980469h-51.191407l2.492188 19.957031h58.679687c5.511719 0 9.976563 4.46875 9.976563 9.980469 0 5.511718-4.464844 9.980468-9.976563 9.980468h-56.183594l6.382813 51.09375c.226563 1.90625.984375 3.703126 2.199219 5.191407l18.261718 21.949219c3.144532 26.394531 21.019532 48.707031 46.101563 57.523437 25.074219 8.820313 52.980469 2.609375 71.953125-16.007813h221.738281c27.09375 26.609376 70.511719 26.609376 97.601563 0h110.871094c5.507812 0 9.976562-4.46875 9.976562-9.980468-.007812-3.339844-.277344-6.675782-.796875-9.976563zm-450.367187 2.597657c-.441407.605468-.945313 1.171874-1.496094 1.695312l-.101563.097656c-13.511719 14.257813-34.132812 19.253906-52.675781 12.769532-18.542969-6.480469-31.554688-23.238282-33.246094-42.804688.015625-.570312-.019531-1.136719-.101562-1.699219-.082032-.859375-.117188-1.726562-.097656-2.59375-.003907-22.125 14.554687-41.609375 35.777343-47.871093 21.21875-6.261719 44.027344 2.199218 56.03125 20.78125 12.003907 18.582031 10.339844 42.851562-4.089843 59.625zm319.339843 0c-.445312.605468-.945312 1.171874-1.496093 1.695312l-.101563.097656c-9.425781 9.949219-22.523437 15.582032-36.226563 15.582032-13.699218 0-26.796874-5.632813-36.222656-15.582032l-.101562-.097656c-.550782-.523438-1.054688-1.089844-1.496094-1.695312-10.257812-11.910157-14.292969-27.957032-10.894531-43.300782 3.398437-15.339844 13.832031-28.179687 28.15625-34.640625.382812-.179687.746093-.378906 1.097656-.597656 6.167969-2.574219 12.78125-3.894531 19.460937-3.894531 16.539063-.003906 32.011719 8.179687 41.316407 21.855468.25.550782.585937 1.054688 1 1.496094 11.578125 18.558594 9.757812 42.484375-4.492188 59.082032zm0 0" fill="#c3bef7"/></svg>
